<?xml version="1.0" encoding="UTF-8"?>
<!DOCTYPE svg PUBLIC "-//W3C//DTD SVG 1.1//EN" "http://www.w3.org/Graphics/SVG/1.1/DTD/svg11.dtd">
<!-- Creator: CorelDRAW 2017 -->
<svg xmlns="http://www.w3.org/2000/svg" xml:space="preserve" width="500px" height="500px" version="1.1" shape-rendering="geometricPrecision" text-rendering="geometricPrecision" image-rendering="optimizeQuality" fill-rule="evenodd" clip-rule="evenodd"
viewBox="0 0 500 500"
 xmlns:xlink="http://www.w3.org/1999/xlink">
 <g id="_.nombre">
  <metadata id="CorelCorpID_0Corel-Layer"/>
  <g id="_2368022952384">
   <g id="__x0023_000000ff">
    <g>
     <path fill="#DD107A" d="M251 57l5 0c3,0 6,0 9,1 5,1 11,2 16,5 7,3 13,8 18,13 4,5 8,10 10,16 3,8 4,16 4,24 0,7 -1,13 -3,20 -2,6 -4,11 -7,16 -2,3 -4,6 -6,8 -4,5 -8,9 -12,14 -5,5 -11,10 -17,14 -9,6 -19,12 -29,17 3,6 6,12 9,18 6,12 12,24 19,36 9,16 19,32 30,47 0,0 0,1 1,1 0,0 0,0 0,0 11,-14 20,-29 28,-45 3,-7 6,-14 8,-21 2,-8 3,-16 3,-24 -1,-6 -2,-12 -6,-17 -2,-3 -4,-5 -6,-6 -2,-1 -5,-2 -7,-2 0,0 -1,0 -1,0 0,-3 0,-6 0,-9 0,0 1,0 1,0 31,0 61,0 92,0 0,3 0,6 0,9 -4,0 -8,1 -11,2 -4,1 -7,3 -10,6 -4,3 -7,6 -10,10 -3,4 -6,7 -8,11 -9,13 -17,27 -25,41 -4,6 -7,13 -11,19 -6,11 -12,22 -18,32 -2,3 -3,6 -5,8 0,0 0,0 0,1 2,3 5,6 7,9 3,4 7,8 10,11 1,1 2,3 4,4 1,1 2,2 2,2 3,3 6,6 10,8 6,4 12,7 19,9 4,1 7,2 11,2 4,0 9,0 13,-1 7,-1 14,-5 19,-10 5,-5 9,-11 11,-18 1,-2 1,-4 2,-7 3,2 5,4 8,6l0 0c-1,7 -3,14 -6,21 -3,7 -6,13 -11,19 -5,7 -11,12 -18,17 -5,3 -11,6 -17,7 -5,1 -9,2 -14,2 0,0 -1,0 -1,0l-5 0c-4,0 -8,-1 -12,-1 -6,-1 -12,-3 -17,-6 -7,-3 -14,-8 -20,-13 -4,-3 -8,-6 -11,-10 -1,-1 -1,-1 -2,-2 -4,-5 -9,-9 -13,-14 -1,1 -1,1 -2,2 -6,6 -12,12 -19,17 -6,5 -13,10 -20,14 -5,3 -11,5 -17,7 -11,4 -23,6 -35,6 0,0 0,0 0,0l-6 0c-4,0 -9,-1 -13,-1 -7,-1 -14,-3 -21,-6 -7,-3 -14,-8 -21,-13 -7,-6 -12,-13 -16,-20 -4,-8 -6,-17 -6,-26 0,-1 0,-1 0,-2l0 -6c0,0 0,-1 0,-1 0,-8 2,-17 4,-25 2,-5 4,-11 6,-16 6,-12 14,-23 23,-32 1,-1 1,-1 2,-2 1,-1 3,-3 4,-4 1,-1 1,-1 2,-2 5,-5 10,-9 15,-13 11,-9 23,-16 35,-23 0,-1 0,-1 -1,-2 -3,-8 -6,-16 -9,-24 -2,-7 -4,-14 -6,-21 -2,-8 -2,-16 -3,-24 0,-2 0,-4 0,-6 0,-6 1,-11 2,-17 1,-8 4,-15 8,-22 4,-7 9,-14 16,-20 6,-6 14,-11 22,-14 7,-3 15,-5 22,-5 1,0 3,0 4,0l0 0zm2 18c-1,0 -2,0 -3,0 -7,1 -13,3 -18,8 -6,5 -10,11 -13,18 -2,6 -3,12 -3,19 0,9 1,18 3,26 3,15 9,30 16,44 8,-4 16,-9 23,-15 4,-3 8,-7 11,-11 2,-3 5,-6 7,-9 2,-3 4,-6 5,-9 4,-9 7,-20 7,-30 0,-2 0,-3 0,-5 0,-4 -1,-8 -2,-12 -2,-5 -4,-9 -7,-13 -1,-2 -3,-3 -4,-5 -4,-3 -9,-6 -14,-7 -2,0 -5,0 -7,0l0 0zm-49 153c-6,3 -11,7 -16,11 -9,7 -17,15 -24,25 -4,5 -6,10 -9,16 -4,9 -6,20 -6,30 0,2 0,3 0,5 0,9 2,17 5,25 3,8 8,16 15,23 4,5 10,9 16,11 6,3 13,4 20,4 1,0 3,0 4,0 2,0 3,0 5,0 7,-1 14,-3 20,-6 4,-2 7,-5 11,-7 7,-5 13,-11 19,-16 1,-1 3,-2 4,-4 0,0 0,-1 -1,-1 -5,-7 -10,-14 -15,-21 -7,-11 -13,-22 -19,-33 -1,-1 -1,-3 -2,-4 -3,-6 -6,-13 -10,-19 -6,-12 -12,-25 -17,-37l0 0z"/>
     <path id="1" fill="none" stroke="#DD107A" stroke-width="1" d="M251 57l5 0c3,0 6,0 9,1 5,1 11,2 16,5 7,3 13,8 18,13 4,5 8,10 10,16 3,8 4,16 4,24 0,7 -1,13 -3,20 -2,6 -4,11 -7,16 -2,3 -4,6 -6,8 -4,5 -8,9 -12,14 -5,5 -11,10 -17,14 -9,6 -19,12 -29,17 3,6 6,12 9,18 6,12 12,24 19,36 9,16 19,32 30,47 0,0 0,1 1,1 0,0 0,0 0,0 11,-14 20,-29 28,-45 3,-7 6,-14 8,-21 2,-8 3,-16 3,-24 -1,-6 -2,-12 -6,-17 -2,-3 -4,-5 -6,-6 -2,-1 -5,-2 -7,-2 0,0 -1,0 -1,0 0,-3 0,-6 0,-9 0,0 1,0 1,0 31,0 61,0 92,0 0,3 0,6 0,9 -4,0 -8,1 -11,2 -4,1 -7,3 -10,6 -4,3 -7,6 -10,10 -3,4 -6,7 -8,11 -9,13 -17,27 -25,41 -4,6 -7,13 -11,19 -6,11 -12,22 -18,32 -2,3 -3,6 -5,8 0,0 0,0 0,1 2,3 5,6 7,9 3,4 7,8 10,11 1,1 2,3 4,4 1,1 2,2 2,2 3,3 6,6 10,8 6,4 12,7 19,9 4,1 7,2 11,2 4,0 9,0 13,-1 7,-1 14,-5 19,-10 5,-5 9,-11 11,-18 1,-2 1,-4 2,-7 3,2 5,4 8,6l0 0c-1,7 -3,14 -6,21 -3,7 -6,13 -11,19 -5,7 -11,12 -18,17 -5,3 -11,6 -17,7 -5,1 -9,2 -14,2 0,0 -1,0 -1,0l-5 0c-4,0 -8,-1 -12,-1 -6,-1 -12,-3 -17,-6 -7,-3 -14,-8 -20,-13 -4,-3 -8,-6 -11,-10 -1,-1 -1,-1 -2,-2 -4,-5 -9,-9 -13,-14 -1,1 -1,1 -2,2 -6,6 -12,12 -19,17 -6,5 -13,10 -20,14 -5,3 -11,5 -17,7 -11,4 -23,6 -35,6 0,0 0,0 0,0l-6 0c-4,0 -9,-1 -13,-1 -7,-1 -14,-3 -21,-6 -7,-3 -14,-8 -21,-13 -7,-6 -12,-13 -16,-20 -4,-8 -6,-17 -6,-26 0,-1 0,-1 0,-2l0 -6c0,0 0,-1 0,-1 0,-8 2,-17 4,-25 2,-5 4,-11 6,-16 6,-12 14,-23 23,-32 1,-1 1,-1 2,-2 1,-1 3,-3 4,-4 1,-1 1,-1 2,-2 5,-5 10,-9 15,-13 11,-9 23,-16 35,-23 0,-1 0,-1 -1,-2 -3,-8 -6,-16 -9,-24 -2,-7 -4,-14 -6,-21 -2,-8 -2,-16 -3,-24 0,-2 0,-4 0,-6 0,-6 1,-11 2,-17 1,-8 4,-15 8,-22 4,-7 9,-14 16,-20 6,-6 14,-11 22,-14 7,-3 15,-5 22,-5 1,0 3,0 4,0m2 18c-1,0 -2,0 -3,0 -7,1 -13,3 -18,8 -6,5 -10,11 -13,18 -2,6 -3,12 -3,19 0,9 1,18 3,26 3,15 9,30 16,44 8,-4 16,-9 23,-15 4,-3 8,-7 11,-11 2,-3 5,-6 7,-9 2,-3 4,-6 5,-9 4,-9 7,-20 7,-30 0,-2 0,-3 0,-5 0,-4 -1,-8 -2,-12 -2,-5 -4,-9 -7,-13 -1,-2 -3,-3 -4,-5 -4,-3 -9,-6 -14,-7 -2,0 -5,0 -7,0m-49 153c-6,3 -11,7 -16,11 -9,7 -17,15 -24,25 -4,5 -6,10 -9,16 -4,9 -6,20 -6,30 0,2 0,3 0,5 0,9 2,17 5,25 3,8 8,16 15,23 4,5 10,9 16,11 6,3 13,4 20,4 1,0 3,0 4,0 2,0 3,0 5,0 7,-1 14,-3 20,-6 4,-2 7,-5 11,-7 7,-5 13,-11 19,-16 1,-1 3,-2 4,-4 0,0 0,-1 -1,-1 -5,-7 -10,-14 -15,-21 -7,-11 -13,-22 -19,-33 -1,-1 -1,-3 -2,-4 -3,-6 -6,-13 -10,-19 -6,-12 -12,-25 -17,-37l0 0z"/>
    </g>
   </g>
   <rect fill="none" width="500" height="500"/>
   <g id="__x0023_000000ff_0">
    <g>
     <path fill="black" d="M24 140l2 0c1,0 3,1 4,1 4,2 6,7 5,12 -1,4 -1,7 -1,11 0,3 1,6 3,8 2,3 4,5 6,7 5,4 10,7 16,9 10,3 21,4 32,3 10,0 19,-2 28,-3 19,-3 37,-8 56,-13 2,-1 4,-1 6,-2 1,-2 3,-5 4,-7 0,-1 1,-2 2,-2 5,-5 11,-9 18,-11 3,-1 7,-1 10,-1 7,1 12,5 16,10 1,2 3,3 4,5 0,0 1,0 1,-1 2,-4 5,-9 8,-12 2,-1 3,-3 6,-3 3,-1 6,0 8,2 3,2 4,5 5,8 1,5 2,10 0,14 -1,2 -2,4 -3,6 -10,19 -20,39 -25,61 -1,6 -3,11 -3,17 1,0 1,0 2,0 3,-2 5,-5 7,-7 2,-2 3,-3 5,-5 2,-5 3,-11 5,-16 4,-11 6,-22 9,-33 0,0 0,-1 0,-1 3,-1 7,-1 9,2 4,4 5,10 5,15 0,7 -1,14 -3,20 3,-4 5,-9 8,-13 4,-6 9,-11 15,-15 4,-3 9,-5 14,-6 6,-1 13,-1 18,1 3,1 5,3 8,5 4,4 7,9 7,14 2,12 -1,25 -5,36 -2,4 -3,8 -5,12 -2,4 -3,7 -5,11 0,1 -1,1 -1,2 14,4 29,7 43,10 14,3 28,5 42,5 3,0 6,0 8,0 9,0 19,-2 27,-7 5,-3 10,-7 14,-11 3,-3 4,-8 5,-12 0,-2 0,-5 0,-7 0,-2 -1,-4 -1,-7 0,-4 3,-8 7,-9 5,-2 11,1 14,6 0,1 0,3 1,4l0 3c0,3 -1,5 -1,8 -1,4 -3,9 -5,12 -2,3 -4,6 -7,8 -7,6 -14,11 -22,15 -9,4 -19,7 -28,8 -14,2 -27,1 -41,-1 -20,-3 -39,-8 -59,-14 -1,0 -2,-1 -3,-1 -3,5 -7,9 -11,13 -4,4 -9,7 -14,9 -3,1 -6,2 -10,3 -5,1 -10,0 -14,-2 -5,-3 -8,-7 -9,-12 -1,-5 0,-11 2,-16 1,-3 4,-5 6,-7 5,-4 12,-6 18,-7 4,-1 7,-1 11,-1 6,-10 10,-20 13,-31 1,-6 2,-11 2,-17 0,-2 0,-5 -1,-7 0,-1 -1,-2 -2,-3 -1,-1 -3,-1 -5,-1 -2,1 -4,2 -5,3 -6,5 -10,11 -14,17 -7,10 -14,21 -21,32 -9,34 -18,69 -33,101 -5,12 -11,23 -17,34 -7,11 -14,22 -22,32 -8,9 -16,18 -25,25 -5,4 -10,7 -15,10 -8,5 -17,9 -27,10 -2,0 -4,0 -6,1l-4 0c-2,0 -4,0 -6,0 -1,0 -1,0 -2,0l-1 0c-5,0 -10,-2 -15,-5 -5,-3 -10,-8 -13,-13 -2,-5 -3,-11 -4,-16 0,-7 1,-13 3,-19 1,-5 3,-9 5,-13 4,-7 8,-14 14,-21 5,-6 10,-11 15,-16 10,-9 20,-18 31,-26 8,-6 16,-11 24,-16 18,-11 37,-21 56,-31 2,-1 5,-2 6,-4 4,-10 8,-20 11,-30 -5,3 -12,3 -17,0 -2,-1 -4,-3 -5,-5 -2,-3 -3,-7 -3,-10 -1,-9 -1,-17 1,-26 1,-8 4,-15 6,-22 0,0 0,-1 0,0 -3,5 -6,9 -9,14 -4,5 -8,9 -13,13 -4,2 -8,4 -12,4 -3,0 -5,0 -8,-1 -3,-1 -6,-4 -8,-7 -3,-6 -5,-14 -4,-21 0,-5 2,-10 3,-15 -11,3 -23,6 -34,9 -14,3 -28,5 -41,6 -2,0 -5,0 -7,0 -15,0 -31,-3 -45,-11 -7,-4 -14,-9 -20,-15 -6,-7 -10,-15 -11,-24 0,-1 0,-1 0,-2l0 -3c0,-1 0,-2 0,-3 2,-4 6,-6 10,-7l0 0zm195 30c-1,0 -3,1 -4,2 -3,2 -6,5 -8,8 -4,6 -8,12 -11,18 -2,6 -5,11 -6,17 -1,3 -1,6 0,9 0,0 0,1 1,1 3,-1 5,-3 7,-6 2,-3 5,-6 7,-9 9,-12 16,-25 23,-37 0,0 0,-1 0,-1 -1,-1 -2,-2 -3,-3 -2,-1 -4,-1 -6,-1l0 0zm70 118c-3,1 -6,1 -9,2 -2,1 -5,3 -6,5 -1,2 -2,4 -2,6 0,1 1,1 2,1 1,0 1,0 2,0 2,0 4,-2 6,-3 1,-1 2,-2 3,-3 2,-2 4,-4 5,-7 0,0 0,0 -1,0l0 0zm-65 25c0,0 -1,0 -1,1 -13,7 -25,14 -37,21 -21,13 -41,27 -59,43 -1,1 -2,2 -3,3 -1,1 -3,3 -4,4 -1,1 -2,2 -3,3 -8,9 -15,19 -20,30 -2,4 -3,8 -5,12 -2,7 -2,14 -1,21 1,3 2,6 5,9 3,3 7,5 10,5 5,1 11,1 16,-1 5,-2 10,-4 15,-7 4,-3 8,-6 11,-9 2,-1 3,-3 4,-4 9,-10 16,-20 23,-31 5,-8 10,-16 15,-25 12,-21 23,-43 33,-66 1,-3 2,-6 3,-9l0 0z"/>
    </g>
   </g>
  </g>
 </g>
</svg>
